<svg width="57" height="72" viewBox="0 0 57 72" fill="none" xmlns="http://www.w3.org/2000/svg">
<g clip-path="url(#clip0_1_40)">
<path d="M28.6163 1.04932L28.6163 70.3537C28.6163 71.7517 31.2907 71.754 31.2907 70.3537L31.2907 1.04932C31.2907 -0.348648 28.6163 -0.350967 28.6163 1.04932Z" fill="#6C63FF"/>
<path d="M54.4813 48.1527C48.3892 56.0947 40.6714 63.2742 31.5991 69.0625C29.6507 70.3056 28.2919 68.6764 26.9481 67.6034C25.8036 66.6896 24.6592 65.7758 23.5147 64.8619C21.2258 63.0343 18.9369 61.2067 16.648 59.3791C11.8621 55.5577 7.0762 51.7363 2.29033 47.9149C1.06178 46.9339 -0.830757 48.4691 0.399216 49.4512C5.80936 53.771 11.2195 58.0908 16.6296 62.4107C19.3347 64.5706 22.0398 66.7305 24.7448 68.8904C26.4757 70.2725 28.5042 72.6964 31.2861 71.8098C33.7976 71.0093 36.1542 68.8529 38.1291 67.4086C40.5764 65.6188 42.9175 63.7337 45.1402 61.76C49.4939 57.8942 53.3804 53.695 56.7906 49.2493C57.7034 48.0592 55.3906 46.9673 54.4813 48.1527Z" fill="#6C63FF"/>
</g>
<defs>
<clipPath id="clip0_1_40">
<rect width="57" height="72" fill="white" transform="matrix(-1 0 0 -1 57 72)"/>
</clipPath>
</defs>
</svg>
