<?xml version="1.0" standalone="no"?>
<!DOCTYPE svg PUBLIC "-//W3C//DTD SVG 20010904//EN"
 "http://www.w3.org/TR/2001/REC-SVG-20010904/DTD/svg10.dtd">
<svg version="1.0" xmlns="http://www.w3.org/2000/svg"
 width="1259.000000pt" height="900.000000pt" viewBox="0 0 1259.000000 900.000000"
 preserveAspectRatio="xMidYMid meet">

<g transform="translate(0.000000,900.000000) scale(0.100000,-0.100000)"
fill="#000000" stroke="none">
<path d="M2663 8442 l-1683 -2 0 -68 0 -69 -27 2 c-16 1 -41 10 -58 19 -16 9
-35 16 -42 16 -16 0 -26 -105 -18 -184 9 -77 26 -90 79 -57 18 12 41 21 50 21
15 0 16 -277 18 -3567 l3 -3568 2995 -3 c1647 -2 3329 0 3738 4 l742 6 -2 47
-1 46 -4 -42 -4 -43 -375 0 -374 0 0 70 c0 85 -11 93 -72 57 -38 -22 -45 -23
-57 -9 -19 20 -32 107 -25 162 12 84 30 96 91 59 53 -33 63 -22 63 66 l0 75
378 2 377 3 -375 5 c-206 3 -376 7 -377 8 -2 1 -3 34 -3 72 0 85 -10 93 -74
55 l-45 -26 -17 26 c-21 32 -25 177 -6 213 16 28 26 28 79 0 27 -14 45 -19 51
-13 4 6 6 263 4 573 l-4 562 -1654 0 -1653 0 -4 -77 -3 -78 -2 83 -2 82 425 0
425 0 -2 238 -3 237 -2 -228 -3 -227 -423 2 -422 3 -3 70 c-2 39 -7 74 -12 79
-5 5 -29 -4 -58 -22 l-49 -30 -13 22 c-16 25 -25 149 -16 200 9 45 35 54 80
27 59 -37 66 -31 66 54 l0 75 448 1 c246 0 458 2 472 3 14 1 672 3 1463 4
l1437 2 0 64 c0 84 -16 100 -71 68 -45 -26 -44 -26 -63 -6 -12 12 -16 35 -15
97 1 45 4 93 8 107 9 33 42 37 87 9 20 -12 39 -18 44 -13 5 5 10 43 12 85 l3
77 1935 5 1935 5 0 233 1 234 -3 -227 -3 -228 -420 0 -419 0 -3 72 c-4 85 -14
93 -75 55 -39 -25 -39 -25 -55 -5 -34 41 -34 200 -1 233 19 20 22 19 66 -11
53 -36 67 -22 67 67 l0 69 375 0 375 0 -2 238 -3 237 -2 -227 -3 -228 -370 0
-369 0 -3 72 c-4 85 -14 93 -75 55 -39 -25 -39 -25 -55 -5 -34 41 -34 200 -1
233 19 20 22 19 65 -10 45 -31 56 -31 63 -2 3 12 4 267 3 567 l-3 545 -1502 3
-1502 2 -4 -72 -3 -73 -2 83 -2 82 425 0 425 0 -2 238 -3 237 -2 -227 -3 -228
-425 0 -425 0 0 70 c0 84 -9 91 -70 56 -44 -25 -44 -25 -58 -5 -31 44 -27 224
5 236 9 4 35 -3 57 -15 23 -12 46 -22 53 -22 17 0 18 70 15 648 l-2 492 -1900
0 -1900 0 -2 -77 -1 -78 -7 100 c-4 55 -8 312 -9 572 0 259 -4 473 -8 475 -5
2 -765 2 -1690 0z m-444 -191 l46 -75 5 74 c3 46 10 75 18 78 9 3 12 -22 12
-102 0 -95 -2 -106 -18 -106 -11 0 -34 27 -62 72 l-45 71 -3 -71 c-2 -55 -6
-72 -17 -72 -12 0 -15 20 -15 106 0 93 2 105 17 102 9 -2 37 -36 62 -77z m399
-29 c3 -100 2 -102 -20 -101 -13 0 -32 -2 -44 -6 -29 -9 -63 23 -70 65 -8 51
26 93 72 88 33 -4 34 -3 34 30 0 22 4 32 13 30 8 -3 13 -36 15 -106z m-1290
61 c3 -28 7 -32 35 -35 24 -2 32 -8 32 -23 0 -15 -8 -21 -32 -23 -29 -3 -33
-7 -33 -31 0 -16 -7 -34 -15 -41 -21 -18 -45 4 -45 41 0 25 -4 29 -29 29 -33
0 -44 11 -35 34 4 10 18 16 35 16 22 0 29 5 29 19 0 35 12 52 34 49 16 -2 22
-11 24 -35z m1108 -21 c60 -40 28 -152 -43 -152 -55 0 -84 86 -47 138 15 22
66 30 90 14z m324 -12 c11 -11 20 -31 20 -45 0 -24 -3 -25 -55 -25 -53 0 -55
-1 -45 -20 13 -24 37 -26 61 -4 10 9 24 14 31 12 19 -7 -36 -58 -62 -58 -32 0
-70 44 -70 81 0 67 76 103 120 59z m-890 -25 c10 -12 10 -18 0 -30 -9 -11 -33
-15 -90 -15 -57 0 -81 4 -90 15 -10 12 -10 18 0 30 9 11 33 15 90 15 57 0 81
-4 90 -15z m2200 -375 c27 -27 33 -56 29 -161 -6 -143 69 -129 -709 -129 -362
0 -666 3 -675 6 -31 12 -45 60 -45 149 0 86 9 119 39 142 12 9 173 12 679 13
646 0 662 0 682 -20z m-2571 -42 c46 -29 51 -120 9 -165 -18 -19 -32 -23 -85
-23 l-63 0 0 98 c0 54 3 102 8 106 10 12 106 0 131 -16z m391 2 c0 -11 -7 -20
-15 -20 -15 0 -21 21 -8 33 12 13 23 7 23 -13z m200 0 c0 -11 -7 -20 -15 -20
-15 0 -21 21 -8 33 12 13 23 7 23 -13z m-417 -57 c8 -10 17 -29 19 -43 3 -24
0 -25 -49 -28 -55 -3 -64 -11 -38 -32 15 -12 55 -5 55 11 0 5 7 9 16 9 24 0
13 -32 -17 -49 -77 -43 -138 63 -77 136 15 19 72 16 91 -4z m155 5 c14 -14 16
-48 3 -48 -5 0 -14 7 -21 15 -33 40 -84 -12 -61 -62 13 -28 32 -29 56 -3 10
11 22 20 27 20 15 0 8 -30 -12 -50 -63 -63 -151 53 -90 118 23 24 78 30 98 10z
m62 -63 c0 -60 -3 -75 -15 -75 -12 0 -15 15 -15 75 0 60 3 75 15 75 12 0 15
-15 15 -75z m134 56 c23 -25 4 -37 -26 -17 -14 9 -28 12 -37 7 -17 -11 -6 -31
17 -31 30 0 63 -30 60 -53 -7 -50 -100 -61 -117 -14 -11 28 4 34 29 12 20 -18
51 -17 57 2 2 6 -15 17 -39 25 -46 16 -61 45 -38 74 18 20 74 18 94 -5z m66
-56 c0 -60 -3 -75 -15 -75 -12 0 -15 15 -15 75 0 60 3 75 15 75 12 0 15 -15
15 -75z m136 67 c60 -40 28 -152 -43 -152 -55 0 -84 86 -47 138 15 22 66 30
90 14z m174 -12 c5 -10 10 -44 10 -74 0 -43 -3 -56 -15 -56 -11 0 -15 12 -15
44 0 57 -8 76 -31 76 -24 0 -39 -30 -39 -79 0 -30 -4 -41 -15 -41 -12 0 -15
15 -15 73 l0 73 55 2 c44 1 57 -2 65 -18z m85 0 c0 -8 -8 -16 -17 -18 -13 -2
-18 3 -18 18 0 15 5 20 18 18 9 -2 17 -10 17 -18z m5 -115 c0 -8 -9 -15 -20
-15 -11 0 -20 7 -20 15 0 8 9 15 20 15 11 0 20 -7 20 -15z m1581 -284 c23 -18
24 -25 24 -136 0 -162 12 -155 -246 -155 l-199 0 15 23 c8 13 29 61 45 106 26
72 28 82 13 79 -11 -2 -23 -23 -34 -58 -17 -57 -18 -57 -42 15 -8 22 -21 41
-31 43 -14 3 -12 -8 13 -77 l30 -81 -23 -25 -23 -25 -359 0 c-438 0 -404 -13
-404 154 0 99 2 112 22 133 l21 23 578 0 c553 0 578 -1 600 -19z m164 -125 c0
-77 -3 -112 -10 -105 -18 18 -11 219 7 219 2 0 3 -52 3 -114z m-2594 91 c9 -7
21 -22 28 -34 10 -20 9 -23 -6 -23 -10 0 -24 9 -31 20 -30 49 -102 8 -102 -58
0 -43 15 -67 48 -77 17 -5 29 1 51 24 35 37 55 41 46 9 -11 -35 -38 -58 -76
-64 -93 -15 -140 134 -63 195 29 23 80 27 105 8z m89 -20 c0 -32 1 -33 37 -29
48 6 63 -15 63 -90 0 -44 -3 -58 -15 -58 -10 0 -15 15 -17 57 -2 48 -6 58 -22
61 -28 6 -46 -25 -46 -75 0 -32 -4 -43 -15 -43 -12 0 -15 18 -15 98 0 54 3
102 7 105 14 15 23 5 23 -26z m318 10 c2 -10 -3 -17 -12 -17 -18 0 -29 16 -21
31 9 14 29 6 33 -14z m3571 -59 l51 -83 0 83 c0 63 3 83 13 80 8 -3 13 -36 15
-106 3 -96 1 -102 -17 -102 -13 0 -34 23 -65 73 l-46 72 0 -72 c0 -66 -2 -73
-20 -73 -19 0 -20 7 -20 98 0 144 16 149 89 30z m399 -26 c3 -100 2 -102 -20
-101 -13 0 -33 -2 -45 -6 -16 -5 -29 0 -49 20 -23 23 -26 32 -21 68 7 49 30
70 75 65 30 -4 32 -2 32 30 0 22 4 32 13 30 8 -3 13 -36 15 -106z m-3478 -2
c0 -82 -3 -100 -15 -100 -12 0 -15 14 -15 70 0 68 -1 70 -25 70 -14 0 -25 5
-25 10 0 6 7 10 15 10 8 0 23 9 32 20 10 11 21 20 25 20 5 0 8 -45 8 -100z
m2188 63 c3 -28 7 -32 35 -35 24 -2 32 -8 32 -23 0 -15 -8 -21 -32 -23 -28 -3
-32 -7 -35 -35 -2 -27 -7 -32 -28 -32 -21 0 -26 5 -28 32 -3 28 -7 32 -35 35
-24 2 -32 8 -32 23 0 15 8 21 33 23 28 3 32 7 32 31 0 34 8 43 35 39 14 -2 21
-12 23 -35z m-2756 -30 c12 -11 18 -30 18 -59 0 -34 -5 -47 -26 -63 -35 -27
-59 -26 -89 4 -35 34 -30 101 9 127 20 13 69 8 88 -9z m78 -58 c0 -68 -2 -75
-20 -75 -18 0 -20 7 -20 68 0 71 4 82 27 82 10 0 13 -19 13 -75z m134 59 c9
-8 16 -22 16 -30 0 -19 -26 -18 -34 1 -3 8 -17 15 -30 15 -21 0 -26 -6 -32
-35 -11 -58 29 -87 60 -43 21 30 44 11 25 -20 -34 -54 -111 -26 -117 42 -5 53
19 86 63 86 18 0 41 -7 49 -16z m150 -6 c9 -12 16 -33 16 -45 0 -21 -5 -23
-51 -23 -43 0 -50 -3 -47 -17 4 -23 41 -28 58 -8 14 16 40 21 40 6 0 -32 -66
-59 -100 -41 -41 22 -51 83 -19 124 27 34 81 36 103 4z m326 2 c0 -13 -7 -20
-20 -20 -13 0 -20 7 -20 20 0 13 7 20 20 20 13 0 20 -7 20 -20z m3176 12 c60
-40 28 -152 -43 -152 -55 0 -84 86 -47 138 15 22 66 30 90 14z m324 -12 c11
-11 20 -31 20 -45 0 -24 -3 -25 -55 -25 -53 0 -55 -1 -45 -20 13 -24 37 -26
61 -4 10 9 24 14 31 12 19 -7 -36 -58 -62 -58 -32 0 -70 44 -70 81 0 67 76
103 120 59z m-890 -25 c22 -26 0 -35 -90 -35 -90 0 -112 9 -90 35 9 11 34 15
90 15 56 0 81 -4 90 -15z m-2610 -90 c0 -8 -9 -15 -20 -15 -11 0 -20 7 -20 15
0 8 9 15 20 15 11 0 20 -7 20 -15z m1717 -2737 c-1 -502 -2 -94 -2 907 0 1001
1 1412 2 913 2 -498 2 -1317 0 -1820z m3518 2447 c23 -23 25 -31 25 -130 0
-99 -2 -107 -25 -130 l-24 -25 -656 0 -655 0 0 35 c0 31 2 34 18 27 57 -31
108 66 66 126 -12 18 -23 22 -65 20 l-49 -2 0 -103 0 -103 -294 0 -295 0 -28
24 c-25 21 -28 31 -31 100 -5 94 3 141 29 167 19 19 42 19 989 19 l971 0 24
-25z m-3186 -37 c46 -29 51 -120 9 -165 -18 -19 -32 -23 -85 -23 l-63 0 0 98
c0 54 3 102 8 106 10 12 106 0 131 -16z m391 2 c0 -11 -7 -20 -15 -20 -15 0
-21 21 -8 33 12 13 23 7 23 -13z m208 -3 c2 -10 -3 -17 -12 -17 -18 0 -29 16
-21 31 9 14 29 6 33 -14z m-419 -63 c12 -15 21 -35 21 -45 0 -16 -8 -19 -55
-19 -56 0 -65 -6 -43 -28 17 -17 47 -15 54 3 8 19 34 20 34 1 0 -18 -38 -46
-61 -46 -9 0 -28 9 -43 21 -20 16 -26 29 -26 60 0 74 76 108 119 53z m149 14
c14 -14 16 -48 3 -48 -5 0 -14 7 -21 15 -33 40 -84 -12 -61 -62 13 -28 32 -29
56 -3 10 11 22 20 27 20 15 0 8 -30 -12 -50 -63 -63 -151 53 -90 118 23 24 78
30 98 10z m62 -63 c0 -60 -3 -75 -15 -75 -12 0 -15 15 -15 75 0 60 3 75 15 75
12 0 15 -15 15 -75z m134 59 c31 -31 9 -49 -24 -19 -17 15 -50 11 -50 -5 0 -5
19 -15 43 -22 33 -12 43 -20 45 -40 4 -33 -21 -58 -58 -58 -31 0 -60 22 -60
46 0 19 26 18 34 -2 7 -19 51 -15 51 5 0 8 -13 18 -28 22 -53 14 -73 49 -45
77 17 17 74 15 92 -4z m76 -59 c0 -68 -2 -75 -20 -75 -18 0 -20 7 -20 68 0 71
4 82 27 82 10 0 13 -19 13 -75z m140 55 c29 -29 27 -84 -5 -115 -13 -14 -31
-25 -40 -25 -20 0 -57 19 -67 34 -13 19 -9 81 8 104 20 29 76 30 104 2z m160
0 c5 -10 10 -44 10 -74 0 -43 -3 -56 -15 -56 -11 0 -15 12 -15 44 0 57 -8 76
-31 76 -24 0 -39 -30 -39 -79 0 -30 -4 -41 -15 -41 -12 0 -15 15 -15 73 l0 73
55 2 c44 1 57 -2 65 -18z m90 0 c0 -13 -7 -20 -20 -20 -13 0 -20 7 -20 20 0
13 7 20 20 20 13 0 20 -7 20 -20z m918 -12 c14 -14 16 -67 3 -86 -4 -8 -19
-12 -32 -10 -20 2 -25 10 -27 43 -3 29 1 43 14 52 22 16 27 16 42 1z m-918
-103 c0 -8 -9 -15 -20 -15 -11 0 -20 7 -20 15 0 8 9 15 20 15 11 0 20 -7 20
-15z m2199 -291 c18 -23 21 -41 21 -131 0 -97 -2 -106 -25 -128 l-24 -25 -436
0 -436 0 -24 25 c-23 23 -25 31 -25 131 0 97 2 110 22 131 l21 23 443 0 443 0
20 -26z m-2144 -39 c14 -13 25 -29 25 -35 0 -17 -26 -11 -45 10 -34 38 -87 19
-101 -36 -20 -80 78 -143 106 -68 10 26 40 33 40 10 0 -8 -11 -27 -24 -43 -19
-22 -32 -28 -66 -28 -59 0 -90 37 -90 106 0 42 5 55 29 80 38 38 91 40 126 4z
m83 -11 c3 -27 6 -30 33 -26 46 7 59 -12 59 -84 0 -50 -3 -64 -15 -64 -12 0
-15 13 -15 61 0 60 0 60 -27 57 -27 -3 -28 -6 -31 -60 -2 -43 -7 -58 -17 -58
-12 0 -15 20 -15 106 0 80 3 105 13 102 6 -3 13 -18 15 -34z m312 16 c0 -11
-7 -20 -15 -20 -15 0 -21 21 -8 33 12 13 23 7 23 -13z m498 -93 c3 -92 2 -97
-18 -97 -18 0 -20 6 -20 70 0 63 -2 70 -20 70 -28 0 -25 14 5 28 14 6 25 17
25 23 0 6 6 9 13 7 8 -3 13 -35 15 -101z m-576 36 c23 -28 28 -49 17 -86 -18
-67 -106 -73 -130 -10 -21 55 13 113 66 113 18 0 38 -8 47 -17z m78 -58 c0
-60 -3 -75 -15 -75 -12 0 -15 15 -15 75 0 60 3 75 15 75 12 0 15 -15 15 -75z
m138 63 c13 -13 16 -48 4 -48 -4 0 -15 9 -25 20 -14 17 -21 19 -38 10 -16 -9
-19 -19 -17 -53 2 -34 7 -43 25 -45 14 -2 26 4 33 17 14 26 30 27 30 2 0 -22
-35 -51 -61 -51 -9 0 -27 9 -40 19 -30 24 -33 89 -5 120 21 23 75 28 94 9z
m145 -5 c8 -10 17 -29 19 -43 3 -24 0 -25 -49 -28 -55 -3 -64 -11 -38 -32 15
-12 55 -5 55 11 0 5 7 9 16 9 24 0 13 -32 -17 -49 -77 -43 -138 63 -77 136 15
19 72 16 91 -4z m327 -3 c0 -11 -7 -20 -15 -20 -8 0 -15 9 -15 20 0 11 7 20
15 20 8 0 15 -9 15 -20z m0 -115 c0 -8 -7 -15 -15 -15 -8 0 -15 7 -15 15 0 8
7 15 15 15 8 0 15 -7 15 -15z m1139 -291 c18 -23 21 -41 21 -120 0 -103 -10
-136 -47 -153 -16 -8 -166 -11 -477 -11 -554 0 -506 -15 -506 156 0 101 2 116
20 134 19 19 33 20 494 20 l475 0 20 -26z m156 -119 c0 -83 -2 -110 -10 -97
-17 29 -11 212 7 212 2 0 3 -52 3 -115z m-2374 92 c9 -7 21 -22 28 -34 10 -20
9 -23 -6 -23 -10 0 -24 9 -31 20 -30 49 -102 8 -102 -58 0 -43 15 -67 48 -77
17 -5 29 1 51 24 35 37 55 41 46 9 -11 -35 -38 -58 -76 -64 -93 -15 -140 134
-63 195 29 23 80 27 105 8z m89 -20 c0 -32 1 -33 37 -29 48 6 63 -15 63 -90 0
-44 -3 -58 -15 -58 -10 0 -15 15 -17 57 -2 48 -6 58 -22 61 -28 6 -46 -25 -46
-75 0 -32 -4 -43 -15 -43 -12 0 -15 18 -15 98 0 54 3 102 7 105 14 15 23 5 23
-26z m318 10 c2 -10 -3 -17 -12 -17 -10 0 -16 9 -16 21 0 24 23 21 28 -4z
m2450 11 c7 -7 12 -21 12 -33 0 -15 9 -24 33 -30 45 -14 45 -49 0 -53 -28 -3
-32 -7 -35 -35 -5 -56 -57 -46 -58 11 0 18 -6 22 -29 22 -35 0 -50 28 -25 47
10 7 26 13 36 13 12 0 18 7 18 23 0 21 16 47 30 47 3 0 11 -5 18 -12z m421
-67 l46 -75 5 74 c3 46 10 75 18 78 9 3 12 -22 12 -102 0 -95 -2 -106 -18
-106 -11 0 -34 27 -62 72 l-45 71 -3 -71 c-2 -55 -6 -72 -17 -72 -12 0 -15 20
-15 106 0 93 2 105 17 102 9 -2 37 -36 62 -77z m399 -29 c3 -100 2 -102 -20
-101 -13 0 -32 -2 -44 -6 -29 -9 -63 23 -70 65 -8 51 26 93 72 88 33 -4 34 -3
34 30 0 22 4 32 13 30 8 -3 13 -36 15 -106z m-2748 78 c36 -36 22 -77 -40
-111 -22 -13 -40 -26 -40 -30 0 -4 21 -9 47 -11 26 -2 48 -9 51 -15 3 -10 -15
-13 -67 -13 -65 0 -71 2 -71 20 0 21 26 50 74 83 33 23 32 60 -1 65 -16 2 -26
-4 -35 -22 -13 -31 -38 -34 -38 -6 0 27 39 60 72 60 15 0 37 -9 48 -20z m-598
-47 c12 -11 18 -30 18 -59 0 -34 -5 -47 -26 -63 -35 -27 -59 -26 -89 4 -35 34
-30 101 9 127 20 13 69 8 88 -9z m78 -58 c0 -60 -3 -75 -15 -75 -12 0 -15 15
-15 75 0 60 3 75 15 75 12 0 15 -15 15 -75z m138 63 c14 -14 16 -48 3 -48 -5
0 -14 7 -21 15 -33 40 -84 -12 -61 -62 13 -28 32 -29 56 -3 10 11 22 20 27 20
15 0 8 -30 -12 -50 -63 -63 -151 53 -90 118 23 24 78 30 98 10z m146 -10 c9
-12 16 -33 16 -45 0 -21 -5 -23 -51 -23 -43 0 -50 -3 -47 -17 4 -23 41 -28 58
-8 14 16 40 21 40 6 0 -32 -66 -59 -100 -41 -41 22 -51 83 -19 124 27 34 81
36 103 4z m326 2 c0 -13 -7 -20 -20 -20 -13 0 -20 7 -20 20 0 13 7 20 20 20
13 0 20 -7 20 -20z m2476 12 c60 -40 28 -152 -43 -152 -55 0 -84 86 -47 138
15 22 66 30 90 14z m324 -12 c11 -11 20 -31 20 -45 0 -24 -3 -25 -55 -25 -53
0 -55 -1 -45 -20 13 -24 37 -26 61 -4 10 9 24 14 31 12 19 -7 -36 -58 -62 -58
-32 0 -70 44 -70 81 0 67 76 103 120 59z m-2800 -115 c0 -8 -9 -15 -20 -15
-11 0 -20 7 -20 15 0 8 9 15 20 15 11 0 20 -7 20 -15z m1497 -1237 c-1 -227
-2 -44 -2 407 0 451 1 637 2 413 2 -223 2 -592 0 -820z m2692 971 c17 -6 36
-19 41 -29 6 -10 10 -66 10 -123 0 -158 10 -151 -240 -155 l-201 -3 16 30 c15
31 65 163 65 175 0 3 -6 6 -13 6 -7 0 -21 -25 -31 -55 -9 -30 -19 -55 -21 -55
-2 0 -12 25 -21 55 -10 30 -24 55 -31 55 -17 0 -17 0 14 -87 l26 -75 -26 -24
-27 -25 -351 3 -351 3 -19 24 c-16 19 -19 40 -19 126 0 57 3 111 6 120 17 42
43 44 605 45 367 0 546 -3 568 -11z m-2387 -50 c58 -16 83 -78 58 -145 -16
-41 -39 -53 -102 -54 l-58 0 0 105 0 105 33 0 c17 0 49 -5 69 -11z m418 -9 c0
-11 -7 -20 -15 -20 -15 0 -21 21 -8 33 12 13 23 7 23 -13z m208 -3 c2 -10 -3
-17 -12 -17 -18 0 -29 16 -21 31 9 14 29 6 33 -14z m-419 -63 c12 -15 21 -35
21 -45 0 -16 -8 -19 -55 -19 -56 0 -65 -6 -43 -28 17 -17 47 -15 54 3 8 19 34
20 34 1 0 -18 -38 -46 -61 -46 -9 0 -28 9 -43 21 -20 16 -26 29 -26 60 0 74
76 108 119 53z m149 14 c13 -13 16 -48 4 -48 -4 0 -15 9 -25 20 -14 17 -21 19
-38 10 -16 -9 -19 -19 -17 -53 2 -34 7 -43 25 -45 14 -2 26 4 33 17 14 26 30
27 30 2 0 -22 -35 -51 -61 -51 -9 0 -27 9 -40 19 -30 24 -33 89 -5 120 21 23
75 28 94 9z m62 -63 c0 -60 -3 -75 -15 -75 -12 0 -15 15 -15 75 0 60 3 75 15
75 12 0 15 -15 15 -75z m134 59 c31 -31 9 -49 -24 -19 -17 15 -50 11 -50 -5 0
-5 19 -15 43 -22 33 -12 43 -20 45 -40 4 -33 -21 -58 -58 -58 -31 0 -60 22
-60 46 0 19 26 18 34 -2 7 -19 51 -15 51 5 0 8 -13 18 -28 22 -53 14 -73 49
-45 77 17 17 74 15 92 -4z m76 -59 c0 -68 -2 -75 -20 -75 -18 0 -20 7 -20 68
0 71 4 82 27 82 10 0 13 -19 13 -75z m140 55 c29 -29 27 -84 -5 -115 -13 -14
-31 -25 -40 -25 -20 0 -57 19 -67 34 -13 19 -9 81 8 104 20 29 76 30 104 2z
m157 9 c19 -17 18 -139 -2 -139 -10 0 -15 15 -17 58 -3 53 -5 57 -28 57 -23 0
-25 -4 -28 -57 -3 -50 -6 -58 -22 -58 -18 0 -20 7 -20 68 0 38 2 71 4 73 10
10 100 8 113 -2z m93 -9 c0 -13 -7 -20 -20 -20 -13 0 -20 7 -20 20 0 13 7 20
20 20 13 0 20 -7 20 -20z m0 -115 c0 -8 -9 -15 -20 -15 -11 0 -20 7 -20 15 0
8 9 15 20 15 11 0 20 -7 20 -15z m1379 -270 c38 -19 41 -30 41 -151 0 -112
-10 -136 -62 -149 -13 -3 -229 -4 -480 -3 l-457 3 -23 23 c-20 20 -23 34 -26
120 -3 106 7 138 48 159 39 20 921 18 959 -2z m-2205 -56 c26 -20 35 -49 16
-49 -5 0 -19 9 -30 20 -43 43 -100 11 -100 -56 0 -46 9 -64 38 -75 28 -11 72
11 72 36 0 15 21 20 33 9 12 -13 -23 -61 -52 -74 -81 -33 -152 52 -121 146 20
60 94 82 144 43z m86 -12 c0 -32 1 -33 37 -29 48 6 63 -15 63 -90 0 -44 -3
-58 -15 -58 -10 0 -15 15 -17 57 -2 48 -6 58 -22 61 -28 6 -46 -25 -46 -75 0
-32 -4 -43 -15 -43 -12 0 -15 18 -15 98 0 54 3 102 7 105 14 15 23 5 23 -26z
m318 10 c2 -10 -3 -17 -12 -17 -18 0 -29 16 -21 31 9 14 29 6 33 -14z m492
-87 c0 -82 -3 -100 -15 -100 -12 0 -15 14 -15 70 0 68 -1 70 -25 70 -14 0 -25
4 -25 8 0 5 11 14 25 20 14 6 25 16 25 22 0 5 7 10 15 10 12 0 15 -18 15 -100z
m-570 30 c29 -29 27 -84 -5 -115 -13 -14 -31 -25 -40 -25 -20 0 -57 19 -67 34
-13 19 -9 81 8 104 20 29 76 30 104 2z m80 -55 c0 -68 -2 -75 -20 -75 -18 0
-20 7 -20 68 0 71 4 82 27 82 10 0 13 -19 13 -75z m134 59 c9 -8 16 -22 16
-30 0 -19 -26 -18 -34 1 -3 8 -17 15 -30 15 -21 0 -26 -6 -32 -35 -11 -58 29
-87 60 -43 21 30 44 11 25 -20 -34 -54 -111 -26 -117 42 -5 53 19 86 63 86 18
0 41 -7 49 -16z m146 -4 c11 -11 20 -31 20 -45 0 -24 -3 -25 -55 -25 -53 0
-55 -1 -45 -20 13 -24 37 -26 61 -4 10 9 24 14 31 12 19 -7 -36 -58 -62 -58
-32 0 -70 44 -70 81 0 67 76 103 120 59z m325 0 c0 -8 -8 -16 -17 -18 -13 -2
-18 3 -18 18 0 15 5 20 18 18 9 -2 17 -10 17 -18z m5 -115 c0 -8 -9 -15 -20
-15 -11 0 -20 7 -20 15 0 8 9 15 20 15 11 0 20 -7 20 -15z m1211 -284 c16 -20
19 -40 19 -132 0 -122 -9 -142 -72 -154 -18 -3 -210 -5 -425 -3 l-392 3 -23
23 c-20 20 -23 34 -26 127 l-4 105 31 30 30 31 421 -3 422 -3 19 -24z m-2117
-32 c26 -20 35 -49 16 -49 -5 0 -19 9 -30 20 -43 43 -100 11 -100 -56 0 -46 9
-64 38 -75 28 -11 72 11 72 36 0 15 21 20 33 9 12 -13 -23 -61 -52 -74 -81
-33 -152 52 -121 146 20 60 94 82 144 43z m86 -12 c0 -32 1 -32 38 -29 33 3
40 0 50 -23 7 -14 12 -48 12 -75 0 -43 -3 -50 -20 -50 -18 0 -20 7 -20 60 0
57 -1 60 -24 60 -28 0 -36 -16 -36 -76 0 -32 -4 -44 -15 -44 -12 0 -15 18 -15
105 0 87 3 105 15 105 10 0 15 -10 15 -33z m318 10 c2 -10 -3 -17 -12 -17 -18
0 -29 16 -21 31 9 14 29 6 33 -14z m515 -4 c35 -41 23 -78 -40 -118 l-48 -30
53 -3 c37 -2 52 -7 52 -18 0 -11 -15 -14 -69 -14 -68 0 -68 0 -63 26 3 16 23
39 54 61 36 26 48 41 46 57 -4 30 -50 29 -63 -1 -12 -28 -35 -30 -35 -3 0 50
79 80 113 43z m-593 -53 c29 -29 27 -84 -5 -115 -13 -14 -31 -25 -40 -25 -20
0 -57 19 -67 34 -13 19 -9 81 8 104 20 29 76 30 104 2z m80 -55 c0 -68 -2 -75
-20 -75 -18 0 -20 7 -20 68 0 71 4 82 27 82 10 0 13 -19 13 -75z m134 59 c9
-8 16 -22 16 -30 0 -19 -26 -18 -34 1 -3 8 -17 15 -30 15 -21 0 -26 -6 -32
-35 -11 -58 29 -87 60 -43 21 30 44 11 25 -20 -34 -54 -111 -26 -117 42 -5 53
19 86 63 86 18 0 41 -7 49 -16z m146 -4 c11 -11 20 -31 20 -45 0 -24 -3 -25
-55 -25 -53 0 -55 -1 -45 -20 13 -24 37 -26 61 -4 10 9 24 14 31 12 19 -7 -36
-58 -62 -58 -32 0 -70 44 -70 81 0 67 76 103 120 59z m325 0 c0 -8 -8 -16 -17
-18 -13 -2 -18 3 -18 18 0 15 5 20 18 18 9 -2 17 -10 17 -18z m5 -115 c0 -8
-9 -15 -20 -15 -11 0 -20 7 -20 15 0 8 9 15 20 15 11 0 20 -7 20 -15z m-1947
-276 c37 -17 47 -50 47 -153 0 -79 -3 -97 -21 -120 l-20 -26 -405 0 c-487 0
-444 -15 -444 150 0 104 1 112 25 135 l24 25 385 0 c261 0 393 -4 409 -11z
m-2052 -42 c9 -7 21 -22 28 -34 10 -20 9 -23 -6 -23 -10 0 -24 9 -31 20 -30
49 -102 8 -102 -58 0 -43 15 -67 48 -77 17 -5 29 1 51 24 35 37 55 41 46 9
-11 -35 -38 -58 -76 -64 -93 -15 -140 134 -63 195 29 23 80 27 105 8z m97 -23
c3 -27 6 -30 33 -26 46 7 59 -12 59 -84 0 -49 -3 -64 -15 -64 -10 0 -15 15
-17 58 -3 53 -5 57 -28 57 -23 0 -25 -4 -28 -57 -3 -50 -6 -58 -22 -58 -19 0
-20 8 -20 98 0 54 3 102 7 106 13 13 28 -1 31 -30z m310 13 c2 -10 -3 -17 -12
-17 -10 0 -16 9 -16 21 0 24 23 21 28 -4z m514 -4 c20 -18 24 -53 8 -69 -8 -8
-6 -15 5 -24 22 -18 19 -47 -10 -75 -27 -28 -61 -32 -92 -10 -29 20 -37 55
-12 55 10 0 19 -6 19 -14 0 -21 17 -29 46 -22 34 9 34 53 -1 62 -29 7 -34 34
-6 34 26 0 36 17 21 35 -18 21 -48 18 -55 -5 -7 -23 -35 -27 -35 -5 0 45 76
71 112 38z m-590 -50 c12 -11 18 -30 18 -59 0 -34 -5 -47 -26 -63 -35 -27 -59
-26 -89 4 -35 34 -30 101 9 127 20 13 69 8 88 -9z m78 -58 c0 -60 -3 -75 -15
-75 -12 0 -15 15 -15 75 0 60 3 75 15 75 12 0 15 -15 15 -75z m138 63 c14 -14
16 -48 3 -48 -5 0 -14 7 -21 15 -33 40 -84 -12 -61 -62 13 -28 32 -29 56 -3
10 11 22 20 27 20 15 0 8 -30 -12 -50 -63 -63 -151 53 -90 118 23 24 78 30 98
10z m146 -10 c9 -12 16 -33 16 -45 0 -21 -5 -23 -51 -23 -43 0 -50 -3 -47 -17
4 -23 41 -28 58 -8 14 16 40 21 40 6 0 -32 -66 -59 -100 -41 -41 22 -51 83
-19 124 27 34 81 36 103 4z m326 2 c0 -11 -7 -20 -15 -20 -8 0 -15 9 -15 20 0
11 7 20 15 20 8 0 15 -9 15 -20z m0 -115 c0 -8 -7 -15 -15 -15 -8 0 -15 7 -15
15 0 8 7 15 15 15 8 0 15 -7 15 -15z m-2787 -276 c37 -17 47 -50 47 -155 0
-87 -2 -97 -25 -119 l-24 -25 -742 0 -743 0 -23 22 c-21 20 -23 29 -23 130 0
102 1 110 25 133 l24 25 730 0 c514 0 737 -3 754 -11z m-2728 -54 c14 -13 25
-29 25 -35 0 -17 -26 -11 -45 10 -34 38 -87 19 -101 -36 -20 -80 78 -143 106
-68 10 26 40 33 40 10 0 -8 -11 -27 -24 -43 -19 -22 -32 -28 -66 -28 -59 0
-90 37 -90 106 0 42 5 55 29 80 38 38 91 40 126 4z m83 -11 c3 -27 6 -30 33
-26 46 7 59 -12 59 -84 0 -49 -3 -64 -15 -64 -10 0 -15 15 -17 58 -3 53 -5 57
-28 57 -23 0 -25 -4 -28 -57 -3 -50 -6 -58 -22 -58 -19 0 -20 8 -20 98 0 54 3
102 7 106 13 13 28 -1 31 -30z m310 13 c2 -10 -3 -17 -12 -17 -10 0 -16 9 -16
21 0 24 23 21 28 -4z m522 -7 c36 -36 22 -77 -40 -111 -22 -13 -40 -26 -40
-30 0 -4 21 -9 47 -11 26 -2 48 -9 51 -15 3 -10 -15 -13 -67 -13 -65 0 -71 2
-71 20 0 21 26 50 74 83 33 23 32 60 -1 65 -16 2 -26 -4 -35 -22 -13 -31 -38
-34 -38 -6 0 27 39 60 72 60 15 0 37 -9 48 -20z m-598 -47 c23 -28 28 -49 17
-86 -18 -67 -106 -73 -130 -10 -21 55 13 113 66 113 18 0 38 -8 47 -17z m78
-58 c0 -60 -3 -75 -15 -75 -12 0 -15 15 -15 75 0 60 3 75 15 75 12 0 15 -15
15 -75z m138 63 c14 -14 16 -48 3 -48 -5 0 -14 7 -21 15 -33 40 -84 -12 -61
-62 13 -28 32 -29 56 -3 10 11 22 20 27 20 15 0 8 -30 -12 -50 -63 -63 -151
53 -90 118 23 24 78 30 98 10z m145 -5 c8 -10 17 -29 19 -43 3 -24 0 -25 -49
-28 -55 -3 -64 -11 -38 -32 15 -12 55 -5 55 11 0 5 7 9 16 9 24 0 13 -32 -17
-49 -77 -43 -138 63 -77 136 15 19 72 16 91 -4z m327 -3 c0 -11 -7 -20 -15
-20 -8 0 -15 9 -15 20 0 11 7 20 15 20 8 0 15 -9 15 -20z m0 -115 c0 -8 -7
-15 -15 -15 -8 0 -15 7 -15 15 0 8 7 15 15 15 8 0 15 -7 15 -15z m1740 -285
c27 -27 33 -56 29 -161 -6 -132 1 -129 -250 -129 l-199 0 15 23 c8 13 29 61
45 106 26 72 28 82 13 79 -11 -2 -23 -23 -34 -58 -17 -57 -18 -57 -42 15 -8
22 -21 41 -31 43 -14 3 -12 -8 13 -77 l30 -81 -23 -25 -23 -25 -316 0 c-173 0
-323 3 -332 6 -31 12 -45 60 -45 149 0 86 9 119 39 142 12 9 147 12 554 13
522 0 538 -1 557 -20z m165 -125 c0 -76 -3 -111 -10 -104 -18 18 -11 219 7
219 2 0 3 -52 3 -115z m-2511 84 c26 -20 35 -49 16 -49 -5 0 -19 9 -30 20 -43
43 -100 11 -100 -56 0 -46 9 -64 38 -75 28 -11 72 11 72 36 0 15 21 20 33 9
12 -13 -23 -61 -52 -74 -81 -33 -152 52 -121 146 20 60 94 82 144 43z m86 -12
c0 -32 1 -33 37 -29 48 6 63 -15 63 -90 0 -44 -3 -58 -15 -58 -10 0 -15 15
-17 57 -2 48 -6 58 -22 61 -28 6 -46 -25 -46 -75 0 -32 -4 -43 -15 -43 -12 0
-15 18 -15 98 0 54 3 102 7 105 14 15 23 5 23 -26z m318 10 c2 -10 -3 -17 -12
-17 -18 0 -29 16 -21 31 9 14 29 6 33 -14z m3011 -59 l51 -83 0 83 c0 63 3 83
13 80 8 -3 13 -36 15 -106 3 -96 1 -102 -17 -102 -13 0 -34 23 -65 73 l-46 72
0 -72 c0 -66 -2 -73 -20 -73 -19 0 -20 7 -20 98 0 144 16 149 89 30z m399 -26
c3 -100 2 -102 -20 -101 -13 0 -33 -2 -45 -6 -16 -5 -29 0 -49 20 -23 23 -26
32 -21 68 7 49 30 70 75 65 30 -4 32 -2 32 30 0 22 4 32 13 30 8 -3 13 -36 15
-106z m-2898 78 c23 -23 24 -33 10 -60 -7 -13 -7 -21 0 -25 5 -3 10 -21 10
-40 0 -38 -28 -65 -68 -65 -23 0 -72 40 -72 60 0 18 29 11 40 -11 13 -24 48
-22 63 3 14 21 -7 48 -35 48 -27 0 -17 24 11 28 16 3 21 9 19 25 -4 31 -47 36
-55 8 -6 -25 -33 -28 -33 -4 0 48 73 70 110 33z m2084 4 c3 -9 6 -24 6 -34 0
-14 9 -20 33 -22 24 -2 32 -8 32 -23 0 -15 -8 -21 -32 -23 -28 -3 -32 -7 -35
-35 -2 -27 -7 -32 -28 -32 -21 0 -26 5 -28 32 -3 28 -7 32 -35 35 -24 2 -32 8
-32 23 0 15 8 21 33 23 28 3 32 7 32 31 0 15 3 31 7 34 12 13 41 7 47 -9z
m-2674 -54 c29 -29 27 -84 -5 -115 -13 -14 -31 -25 -40 -25 -20 0 -57 19 -67
34 -13 19 -9 81 8 104 20 29 76 30 104 2z m80 -55 c0 -68 -2 -75 -20 -75 -18
0 -20 7 -20 68 0 71 4 82 27 82 10 0 13 -19 13 -75z m134 59 c9 -8 16 -22 16
-30 0 -19 -26 -18 -34 1 -3 8 -17 15 -30 15 -21 0 -26 -6 -32 -35 -11 -58 29
-87 60 -43 21 30 44 11 25 -20 -34 -54 -111 -26 -117 42 -5 53 19 86 63 86 18
0 41 -7 49 -16z m146 -4 c11 -11 20 -31 20 -45 0 -24 -3 -25 -55 -25 -53 0
-55 -1 -45 -20 13 -24 37 -26 61 -4 10 9 24 14 31 12 19 -7 -36 -58 -62 -58
-32 0 -70 44 -70 81 0 67 76 103 120 59z m330 0 c0 -13 -7 -20 -20 -20 -13 0
-20 7 -20 20 0 13 7 20 20 20 13 0 20 -7 20 -20z m2616 12 c60 -40 28 -152
-43 -152 -55 0 -84 86 -47 138 15 22 66 30 90 14z m324 -12 c11 -11 20 -31 20
-45 0 -24 -3 -25 -55 -25 -53 0 -55 -1 -45 -20 13 -24 37 -26 61 -4 10 9 24
14 31 12 19 -7 -36 -58 -62 -58 -32 0 -70 44 -70 81 0 67 76 103 120 59z
m-2940 -115 c0 -8 -9 -15 -20 -15 -11 0 -20 7 -20 15 0 8 9 15 20 15 11 0 20
-7 20 -15z m1637 -1237 c-1 -227 -2 -44 -2 407 0 451 1 637 2 413 2 -223 2
-592 0 -820z m3030 950 c21 -20 23 -29 23 -132 0 -162 9 -156 -242 -156 l-198
0 14 23 c20 31 70 176 63 183 -11 12 -25 -6 -37 -51 -7 -25 -16 -47 -20 -50
-4 -2 -14 20 -24 50 -10 34 -23 55 -32 55 -18 0 -18 4 11 -74 30 -81 32 -106
5 -113 -11 -3 -20 -9 -20 -14 0 -5 -221 -9 -508 -9 -494 0 -509 1 -530 20 -27
25 -35 70 -30 164 3 62 7 79 27 100 l24 26 726 0 725 0 23 -22z m-2698 -40
c46 -29 51 -120 9 -165 -18 -19 -32 -23 -85 -23 l-63 0 0 98 c0 54 3 102 8
106 10 12 106 0 131 -16z m391 2 c0 -11 -7 -20 -15 -20 -15 0 -21 21 -8 33 12
13 23 7 23 -13z m208 -3 c2 -10 -3 -17 -12 -17 -18 0 -29 16 -21 31 9 14 29 6
33 -14z m-419 -63 c12 -15 21 -35 21 -45 0 -16 -8 -19 -55 -19 -56 0 -65 -6
-43 -28 17 -17 47 -15 54 3 8 19 34 20 34 1 0 -18 -38 -46 -61 -46 -9 0 -28 9
-43 21 -20 16 -26 29 -26 60 0 74 76 108 119 53z m149 14 c14 -14 16 -48 3
-48 -5 0 -14 7 -21 15 -33 40 -84 -12 -61 -62 13 -28 32 -29 56 -3 10 11 22
20 27 20 15 0 8 -30 -12 -50 -63 -63 -151 53 -90 118 23 24 78 30 98 10z m62
-63 c0 -60 -3 -75 -15 -75 -12 0 -15 15 -15 75 0 60 3 75 15 75 12 0 15 -15
15 -75z m134 59 c31 -31 9 -49 -24 -19 -17 15 -50 11 -50 -5 0 -5 19 -15 43
-22 33 -12 43 -20 45 -40 4 -33 -21 -58 -58 -58 -31 0 -60 22 -60 46 0 19 26
18 34 -2 7 -19 51 -15 51 5 0 8 -13 18 -28 22 -53 14 -73 49 -45 77 17 17 74
15 92 -4z m76 -59 c0 -68 -2 -75 -20 -75 -18 0 -20 7 -20 68 0 71 4 82 27 82
10 0 13 -19 13 -75z m140 55 c29 -29 27 -84 -5 -115 -13 -14 -31 -25 -40 -25
-20 0 -57 19 -67 34 -13 19 -9 81 8 104 20 29 76 30 104 2z m160 0 c5 -10 10
-44 10 -74 0 -43 -3 -56 -15 -56 -11 0 -15 12 -15 44 0 57 -8 76 -31 76 -24 0
-39 -30 -39 -79 0 -30 -4 -41 -15 -41 -12 0 -15 15 -15 73 l0 73 55 2 c44 1
57 -2 65 -18z m90 0 c0 -13 -7 -20 -20 -20 -13 0 -20 7 -20 20 0 13 7 20 20
20 13 0 20 -7 20 -20z m0 -115 c0 -8 -9 -15 -20 -15 -11 0 -20 7 -20 15 0 8 9
15 20 15 11 0 20 -7 20 -15z m1707 -287 c21 -20 23 -29 23 -134 0 -171 75
-154 -681 -154 -613 0 -630 1 -649 20 -27 27 -33 56 -29 161 6 142 -65 129
682 129 l631 0 23 -22z m-2533 -39 c26 -20 35 -49 16 -49 -5 0 -19 9 -30 20
-43 43 -100 11 -100 -56 0 -46 9 -64 38 -75 28 -11 72 11 72 36 0 15 21 20 33
9 12 -13 -23 -61 -52 -74 -81 -33 -152 52 -121 146 20 60 94 82 144 43z m86
-12 c0 -32 1 -32 38 -29 33 3 40 0 50 -23 7 -14 12 -48 12 -75 0 -43 -3 -50
-20 -50 -18 0 -20 7 -20 60 0 57 -1 60 -24 60 -28 0 -36 -16 -36 -76 0 -32 -4
-44 -15 -44 -12 0 -15 18 -15 105 0 87 3 105 15 105 10 0 15 -10 15 -33z m310
13 c0 -11 -7 -20 -15 -20 -15 0 -21 21 -8 33 12 13 23 7 23 -13z m500 -90 c0
-93 -1 -100 -20 -100 -18 0 -20 7 -20 70 0 63 -2 70 -20 70 -28 0 -25 14 5 28
14 6 25 16 25 22 0 5 7 10 15 10 12 0 15 -18 15 -100z m-570 30 c29 -29 27
-84 -5 -115 -13 -14 -31 -25 -40 -25 -20 0 -57 19 -67 34 -13 19 -9 81 8 104
20 29 76 30 104 2z m70 -55 c0 -60 -3 -75 -15 -75 -12 0 -15 15 -15 75 0 60 3
75 15 75 12 0 15 -15 15 -75z m144 53 c23 -32 2 -49 -24 -20 -17 18 -25 20
-41 11 -26 -13 -23 -76 4 -93 15 -9 21 -6 37 14 14 19 22 22 31 13 9 -9 5 -18
-15 -38 -47 -47 -106 -16 -106 55 0 51 23 80 65 80 24 0 39 -7 49 -22z m146 2
c11 -11 20 -31 20 -45 0 -24 -3 -25 -55 -25 -53 0 -55 -1 -45 -20 13 -24 37
-26 61 -4 10 9 24 14 31 12 19 -7 -36 -58 -62 -58 -32 0 -70 44 -70 81 0 67
76 103 120 59z m325 0 c0 -8 -8 -16 -17 -18 -13 -2 -18 3 -18 18 0 15 5 20 18
18 9 -2 17 -10 17 -18z m5 -115 c0 -8 -9 -15 -20 -15 -11 0 -20 7 -20 15 0 8
9 15 20 15 11 0 20 -7 20 -15z m1520 -285 c18 -18 20 -33 20 -134 0 -165 17
-156 -308 -156 -246 0 -255 1 -239 18 13 14 17 39 17 105 0 51 -4 87 -10 87
-5 0 -10 -5 -10 -12 0 -9 -3 -9 -12 0 -36 36 -93 -6 -93 -70 0 -50 25 -72 73
-64 35 5 37 4 22 -25 -11 -20 -60 -27 -60 -9 0 6 -7 10 -15 10 -18 0 -19 -12
-3 -28 9 -9 -27 -12 -165 -12 -176 0 -178 0 -202 25 -23 22 -25 31 -25 128 0
90 3 108 21 131 l20 26 475 0 c461 0 475 -1 494 -20z m-2206 -41 c27 -22 35
-49 13 -49 -7 0 -20 9 -30 20 -33 39 -93 15 -98 -40 -4 -50 2 -70 26 -86 31
-20 69 -8 80 25 8 25 35 28 35 4 -1 -27 -24 -52 -59 -64 -63 -22 -121 28 -121
103 1 88 89 138 154 87z m84 -15 c3 -27 6 -30 33 -26 46 7 59 -12 59 -84 0
-50 -3 -64 -15 -64 -12 0 -15 13 -15 61 0 60 0 60 -27 57 -27 -3 -28 -6 -31
-60 -2 -43 -7 -58 -17 -58 -12 0 -15 20 -15 106 0 80 3 105 13 102 6 -3 13
-18 15 -34z m312 16 c0 -11 -7 -20 -15 -20 -15 0 -21 21 -8 33 12 13 23 7 23
-13z m522 -7 c27 -24 23 -68 -9 -93 -16 -11 -39 -30 -53 -40 l-25 -19 53 -1
c39 0 52 -4 52 -15 0 -12 -15 -15 -71 -15 -68 0 -70 1 -64 23 6 21 39 55 86
87 16 12 20 21 15 38 -10 32 -53 30 -66 -3 -12 -32 -30 -32 -30 -1 0 48 74 74
112 39z m-606 -41 c60 -40 28 -152 -43 -152 -55 0 -84 86 -47 138 15 22 66 30
90 14z m84 -67 c0 -60 -3 -75 -15 -75 -12 0 -15 15 -15 75 0 60 3 75 15 75 12
0 15 -15 15 -75z m144 53 c23 -32 2 -49 -24 -20 -17 18 -25 20 -41 11 -26 -13
-23 -76 4 -93 15 -9 21 -6 37 14 14 19 22 22 31 13 9 -9 5 -18 -15 -38 -47
-47 -106 -16 -106 55 0 51 23 80 65 80 24 0 39 -7 49 -22z m145 -4 c12 -15 21
-35 21 -45 0 -16 -8 -19 -55 -19 -56 0 -65 -6 -43 -28 17 -17 47 -15 54 3 8
19 34 20 34 1 0 -18 -38 -46 -61 -46 -9 0 -28 9 -43 21 -20 16 -26 29 -26 60
0 74 76 108 119 53z m321 6 c0 -11 -7 -20 -15 -20 -8 0 -15 9 -15 20 0 11 7
20 15 20 8 0 15 -9 15 -20z m654 -16 c18 -18 20 -33 6 -68 -17 -46 -70 -27
-70 25 0 27 22 59 40 59 5 0 16 -7 24 -16z m-654 -99 c0 -8 -7 -15 -15 -15 -8
0 -15 7 -15 15 0 8 7 15 15 15 8 0 15 -7 15 -15z"/>
<path d="M2524 8226 c-3 -8 -4 -29 -2 -48 4 -43 42 -53 59 -14 17 38 4 76 -27
76 -13 0 -27 -6 -30 -14z"/>
<path d="M2377 8239 c-21 -12 -23 -72 -2 -89 21 -18 48 -8 55 20 13 50 -17 89
-53 69z"/>
<path d="M2687 8233 c-15 -15 -5 -23 28 -23 26 0 33 3 29 15 -6 15 -45 21 -57
8z"/>
<path d="M2828 7811 c-37 -29 -53 -81 -38 -125 15 -48 42 -68 91 -70 35 -1 46
4 71 33 27 30 30 39 26 83 -6 60 -30 88 -84 95 -30 4 -45 0 -66 -16z m102 -31
c43 -43 10 -140 -49 -140 -16 0 -36 9 -47 21 -24 26 -23 92 1 119 23 26 69 26
95 0z"/>
<path d="M3240 7720 c0 -82 3 -100 15 -100 12 0 15 18 15 100 0 82 -3 100 -15
100 -12 0 -15 -18 -15 -100z"/>
<path d="M3620 7720 c0 -55 4 -100 9 -100 6 0 11 14 13 32 4 44 21 45 44 3 10
-20 26 -35 36 -35 16 0 14 7 -12 48 l-30 47 25 22 c28 24 31 33 13 33 -7 0
-27 -14 -45 -32 l-33 -32 0 57 c0 31 -4 57 -10 57 -6 0 -10 -40 -10 -100z"/>
<path d="M3170 7791 c0 -11 -6 -22 -12 -24 -10 -4 -10 -7 -1 -14 6 -5 13 -35
15 -68 3 -53 5 -60 26 -63 12 -2 22 1 22 7 0 6 -4 11 -10 11 -15 0 -13 107 3
114 10 5 10 7 0 12 -7 3 -13 14 -13 25 0 10 -7 19 -15 19 -8 0 -15 -9 -15 -19z"/>
<path d="M3010 7706 c0 -75 9 -86 73 -84 l47 1 0 73 c0 59 -3 74 -15 74 -11 0
-15 -13 -15 -53 0 -55 -12 -77 -41 -77 -22 0 -29 20 -29 81 0 27 -4 49 -10 49
-6 0 -10 -28 -10 -64z"/>
<path d="M3316 7748 c-17 -23 -21 -85 -8 -104 25 -39 90 -36 111 5 17 31 13
86 -7 104 -27 25 -78 22 -96 -5z m80 -27 c7 -13 9 -34 5 -49 -6 -21 -13 -27
-36 -27 -40 0 -56 41 -31 80 20 31 46 29 62 -4z"/>
<path d="M3474 7749 c-24 -26 -25 -92 -2 -116 25 -24 77 -21 100 6 24 31 23
86 -2 111 -26 26 -72 26 -96 -1z m74 -11 c13 -13 16 -56 6 -82 -7 -19 -45 -21
-62 -4 -17 17 -15 64 4 82 19 19 36 20 52 4z"/>
<path d="M3873 7693 l37 -38 37 38 38 37 -75 0 -75 0 38 -37z"/>
<path d="M1400 7720 l0 -70 40 0 c44 0 60 18 60 70 0 52 -16 70 -60 70 l-40 0
0 -70z"/>
<path d="M1597 7734 c-15 -16 -5 -24 29 -24 24 0 34 4 32 13 -5 13 -50 22 -61
11z"/>
<path d="M2167 7739 c-21 -12 -23 -72 -2 -89 21 -18 48 -8 55 20 13 50 -17 89
-53 69z"/>
<path d="M2985 7305 c-44 -43 -27 -78 46 -95 28 -7 53 -19 56 -26 8 -21 -16
-44 -46 -44 -31 0 -45 9 -54 33 -8 23 -27 22 -27 -1 0 -54 105 -77 142 -32 10
12 18 27 18 34 0 27 -32 55 -69 61 -44 7 -66 27 -57 50 10 26 86 16 86 -11 0
-8 7 -14 15 -14 30 0 15 39 -22 59 -34 17 -62 13 -88 -14z"/>
<path d="M3150 7207 c0 -77 9 -87 73 -85 l47 1 0 73 c0 59 -3 74 -15 74 -11 0
-15 -13 -15 -54 0 -56 -17 -83 -44 -73 -10 4 -16 24 -18 63 -2 35 -8 59 -15
62 -10 3 -13 -14 -13 -61z"/>
<path d="M3307 7263 c-4 -3 -7 -37 -7 -75 0 -54 3 -68 15 -68 11 0 15 12 15
49 0 46 17 81 39 81 19 0 31 -29 31 -77 0 -40 4 -53 15 -53 21 0 21 98 -1 128
-17 24 -53 29 -72 10 -9 -9 -12 -9 -12 0 0 13 -13 16 -23 5z"/>
<path d="M3460 7195 c0 -60 3 -75 15 -75 12 0 15 13 15 55 0 45 3 56 22 66 30
16 48 -11 48 -73 0 -26 5 -48 10 -48 14 0 13 123 -2 138 -7 7 -21 12 -33 12
-12 0 -26 -5 -33 -12 -9 -9 -12 -9 -12 0 0 7 -7 12 -15 12 -12 0 -15 -15 -15
-75z"/>
<path d="M3873 7193 l37 -38 37 38 38 37 -75 0 -75 0 38 -37z"/>
<path d="M5918 7215 c-8 -19 -8 -31 0 -50 16 -34 49 -33 63 2 22 58 -37 104
-63 48z"/>
<path d="M1900 7230 c-22 -22 -25 -42 -10 -71 23 -41 70 -16 70 38 0 44 -31
62 -60 33z"/>
<path d="M2257 7233 c-15 -15 -5 -23 28 -23 26 0 33 3 29 15 -6 15 -45 21 -57
8z"/>
<path d="M5777 7239 c-21 -12 -23 -72 -2 -89 21 -18 48 -8 55 20 13 50 -17 89
-53 69z"/>
<path d="M6087 7233 c-15 -15 -5 -23 28 -23 26 0 33 3 29 15 -6 15 -45 21 -57
8z"/>
<path d="M5990 6810 c0 -5 14 -10 30 -10 l30 0 0 -90 c0 -72 3 -90 15 -90 11
0 15 19 17 88 l3 87 33 3 c64 6 30 22 -48 22 -47 0 -80 -4 -80 -10z"/>
<path d="M7100 6791 c0 -11 -6 -22 -12 -24 -10 -4 -10 -7 -1 -14 6 -5 13 -35
15 -68 3 -53 5 -60 26 -63 12 -2 22 1 22 7 0 6 -4 11 -10 11 -15 0 -13 107 3
114 10 5 10 7 0 12 -7 3 -13 14 -13 25 0 10 -7 19 -15 19 -8 0 -15 -9 -15 -19z"/>
<path d="M6167 6758 c-44 -34 -39 -115 8 -136 29 -13 72 -1 81 23 9 23 -6 33
-17 12 -14 -23 -56 -22 -69 3 -10 19 -8 20 45 20 52 0 55 1 55 25 0 50 -63 83
-103 53z m61 -20 c20 -20 14 -28 -23 -28 -24 0 -35 5 -35 14 0 24 39 33 58 14z"/>
<path d="M6300 6695 c0 -87 15 -101 22 -19 5 53 20 78 43 71 6 -2 11 -31 13
-65 2 -46 7 -62 17 -62 11 0 15 14 15 55 0 42 4 56 18 63 32 17 42 3 42 -59 0
-46 3 -59 15 -59 11 0 15 12 15 49 0 73 -13 101 -48 101 -15 0 -33 -5 -39 -11
-8 -8 -13 -8 -17 0 -9 15 -49 14 -64 -1 -9 -9 -12 -9 -12 0 0 7 -4 12 -10 12
-6 0 -10 -32 -10 -75z"/>
<path d="M6702 6747 c-38 -40 -25 -109 24 -127 28 -11 70 4 79 28 9 23 -3 27
-23 9 -16 -15 -62 -24 -62 -13 0 2 -3 11 -6 20 -5 12 5 15 48 18 50 3 53 4 50
28 -9 59 -70 80 -110 37z m74 -14 c17 -17 16 -18 -20 -21 -45 -4 -54 2 -36 23
16 20 35 19 56 -2z"/>
<path d="M6850 6695 c0 -85 17 -103 22 -22 2 43 7 54 26 62 24 10 30 35 9 35
-7 0 -18 -5 -25 -12 -9 -9 -12 -9 -12 0 0 7 -4 12 -10 12 -6 0 -10 -32 -10
-75z"/>
<path d="M6956 6754 c-9 -8 -16 -20 -16 -25 0 -15 22 -10 35 7 8 11 19 14 33
10 35 -12 26 -33 -18 -40 -46 -7 -67 -35 -50 -65 13 -25 28 -30 62 -20 15 4
37 5 49 2 18 -5 21 -3 16 11 -4 10 -7 37 -7 61 0 51 -19 75 -60 75 -16 0 -36
-7 -44 -16z m74 -78 c0 -19 -26 -38 -46 -34 -27 5 -28 27 -2 37 33 14 48 13
48 -3z"/>
<path d="M7170 6714 c0 -81 10 -94 70 -92 l50 2 0 73 c0 74 -19 106 -21 36 -2
-65 -12 -88 -39 -88 -24 0 -25 4 -28 63 -2 46 -7 62 -17 62 -11 0 -15 -14 -15
-56z"/>
<path d="M7330 6693 c0 -58 3 -73 15 -73 12 0 15 13 15 56 0 47 3 57 20 61 33
9 23 29 -15 29 l-35 0 0 -73z"/>
<path d="M7440 6750 c-26 -26 -27 -91 -2 -112 32 -29 58 -30 89 -4 15 13 25
28 21 32 -5 4 -17 -1 -27 -10 -24 -21 -65 -17 -69 7 -3 14 4 17 47 17 48 0 51
2 51 25 0 14 -9 34 -20 45 -11 11 -31 20 -45 20 -14 0 -34 -9 -45 -20z m68
-12 c20 -20 14 -28 -23 -28 -19 0 -35 4 -35 8 0 12 22 32 35 32 6 0 16 -5 23
-12z"/>
<path d="M7693 6693 l37 -38 37 38 38 37 -75 0 -75 0 38 -37z"/>
<path d="M4610 6720 l0 -70 40 0 c44 0 60 18 60 70 0 52 -16 70 -60 70 l-40 0
0 -70z"/>
<path d="M4807 6726 c-5 -13 1 -16 29 -16 24 0 34 4 32 13 -7 19 -54 21 -61 3z"/>
<path d="M5375 6733 c-18 -17 -20 -64 -3 -81 33 -33 75 5 63 58 -7 33 -38 45
-60 23z"/>
<path d="M7070 6220 c0 -82 3 -100 15 -100 12 0 15 14 16 68 l0 67 26 -67 c14
-38 31 -68 38 -68 7 0 24 30 38 68 l26 67 0 -67 c1 -54 4 -68 16 -68 12 0 15
18 15 100 0 92 -2 100 -19 100 -15 0 -25 -17 -46 -80 -15 -44 -28 -80 -30 -80
-2 0 -15 36 -30 80 -21 63 -31 80 -46 80 -17 0 -19 -8 -19 -100z"/>
<path d="M7300 6305 c0 -8 5 -15 10 -15 6 0 10 7 10 15 0 8 -4 15 -10 15 -5 0
-10 -7 -10 -15z"/>
<path d="M7360 6220 c0 -82 3 -100 15 -100 12 0 15 18 15 100 0 82 -3 100 -15
100 -12 0 -15 -18 -15 -100z"/>
<path d="M7520 6291 c0 -26 -3 -28 -37 -27 -34 1 -40 -3 -56 -35 -14 -29 -15
-42 -6 -67 10 -29 41 -50 64 -43 6 2 22 3 38 3 l27 -1 0 100 c0 81 -3 99 -15
99 -10 0 -15 -10 -15 -29z m-19 -51 c23 -13 26 -72 4 -90 -40 -33 -82 27 -51
74 19 29 20 30 47 16z"/>
<path d="M7300 6195 c0 -43 4 -75 10 -75 6 0 10 32 10 75 0 43 -4 75 -10 75
-6 0 -10 -32 -10 -75z"/>
<path d="M7693 6193 l37 -38 37 38 38 37 -75 0 -75 0 38 -37z"/>
<path d="M6007 6239 c-23 -13 -24 -87 -1 -96 27 -10 49 11 52 50 4 41 -20 63
-51 46z"/>
<path d="M6357 6234 c-15 -16 -5 -24 29 -24 24 0 34 4 32 13 -5 13 -50 22 -61
11z"/>
<path d="M7054 5820 c-34 -14 -54 -50 -54 -98 0 -77 55 -123 120 -100 35 12
67 62 48 74 -6 4 -14 2 -16 -5 -8 -24 -41 -51 -62 -51 -52 0 -80 87 -44 138
19 28 65 29 89 2 21 -23 35 -26 35 -7 0 36 -74 65 -116 47z"/>
<path d="M7520 5720 c0 -60 4 -100 10 -100 6 0 10 40 10 100 0 60 -4 100 -10
100 -6 0 -10 -40 -10 -100z"/>
<path d="M7216 5748 c-17 -23 -21 -85 -8 -104 25 -39 90 -36 111 5 17 31 13
86 -7 104 -27 25 -78 22 -96 -5z m80 -27 c7 -13 9 -34 5 -49 -6 -21 -13 -27
-36 -27 -40 0 -56 41 -31 80 20 31 46 29 62 -4z"/>
<path d="M7374 5749 c-24 -26 -25 -92 -2 -116 25 -24 77 -21 100 6 24 31 23
86 -2 111 -26 26 -72 26 -96 -1z m74 -11 c13 -13 16 -56 6 -82 -7 -19 -45 -21
-62 -4 -17 17 -15 64 4 82 19 19 36 20 52 4z"/>
<path d="M7693 5693 l37 -38 37 38 38 37 -75 0 -75 0 38 -37z"/>
<path d="M9264 5726 c-3 -8 -4 -29 -2 -48 4 -43 42 -53 59 -14 17 38 4 76 -27
76 -13 0 -27 -6 -30 -14z"/>
<path d="M5940 5730 c-22 -22 -25 -42 -10 -71 23 -41 70 -16 70 38 0 44 -31
62 -60 33z"/>
<path d="M6297 5733 c-15 -15 -5 -23 28 -23 26 0 33 3 29 15 -6 15 -45 21 -57
8z"/>
<path d="M9117 5739 c-21 -12 -23 -72 -2 -89 21 -18 48 -8 55 20 13 50 -17 89
-53 69z"/>
<path d="M9427 5733 c-15 -15 -5 -23 28 -23 26 0 33 3 29 15 -6 15 -45 21 -57
8z"/>
<path d="M9814 5303 c2 -10 15 -55 27 -101 28 -107 46 -108 73 -4 11 40 22 69
26 65 4 -4 15 -38 25 -75 26 -100 44 -93 76 32 24 92 25 100 9 100 -14 0 -20
-14 -30 -63 -6 -35 -15 -69 -19 -75 -4 -7 -15 22 -26 63 -14 59 -22 75 -36 75
-13 0 -21 -12 -29 -42 -6 -24 -16 -59 -22 -78 l-12 -35 -8 40 c-19 88 -29 115
-44 115 -10 0 -14 -6 -10 -17z"/>
<path d="M10090 5305 c0 -8 5 -15 10 -15 6 0 10 7 10 15 0 8 -4 15 -10 15 -5
0 -10 -7 -10 -15z"/>
<path d="M10400 5290 c0 -27 -2 -29 -29 -24 -66 13 -101 -91 -45 -135 15 -11
31 -18 37 -14 5 3 23 6 38 5 l29 -1 0 100 c0 81 -3 99 -15 99 -10 0 -15 -10
-15 -30z m-12 -52 c14 -14 16 -67 3 -86 -4 -8 -19 -12 -32 -10 -20 2 -25 10
-27 43 -3 29 1 43 14 52 22 16 27 16 42 1z"/>
<path d="M10090 5195 c0 -43 4 -75 10 -75 6 0 10 32 10 75 0 43 -4 75 -10 75
-6 0 -10 -32 -10 -75z"/>
<path d="M10150 5193 c0 -58 3 -73 15 -73 11 0 15 13 15 54 0 56 17 83 45 72
11 -4 15 -21 15 -66 0 -47 3 -60 15 -60 20 0 22 122 2 138 -7 6 -34 10 -60 9
l-47 -2 0 -72z"/>
<path d="M10720 5195 l34 -35 33 32 c18 18 33 33 33 35 0 2 -30 3 -67 3 l-67
0 34 -35z"/>
<path d="M8430 5220 l0 -70 40 0 c46 0 64 23 62 78 -2 47 -18 62 -63 62 l-39
0 0 -70z"/>
<path d="M8627 5226 c-5 -13 1 -16 29 -16 24 0 34 4 32 13 -7 19 -54 21 -61 3z"/>
<path d="M9195 5233 c-18 -17 -20 -64 -3 -81 33 -33 75 5 63 58 -7 33 -38 45
-60 23z"/>
<path d="M10038 4823 c-11 -3 -18 -14 -18 -28 0 -13 -6 -25 -12 -28 -10 -4
-10 -7 0 -18 7 -7 12 -38 12 -71 0 -32 4 -58 10 -58 6 0 10 27 10 60 0 47 4
62 16 67 15 6 15 8 -2 20 -19 14 -19 15 0 29 22 16 11 33 -16 27z"/>
<path d="M10250 4720 c0 -60 4 -100 10 -100 6 0 10 40 10 100 0 60 -4 100 -10
100 -6 0 -10 -40 -10 -100z"/>
<path d="M10108 4759 c-10 -5 -18 -17 -18 -24 0 -19 9 -19 31 1 11 10 25 13
39 9 30 -9 20 -27 -21 -38 -19 -5 -40 -13 -46 -19 -36 -29 9 -84 54 -67 13 5
35 6 47 3 22 -5 23 -4 19 48 -6 68 -25 98 -61 98 -15 0 -35 -5 -44 -11z m72
-83 c0 -19 -26 -38 -47 -34 -24 4 -29 35 -6 41 35 9 53 7 53 -7z"/>
<path d="M10316 4754 c-30 -30 -17 -53 39 -71 17 -5 31 -17 33 -26 5 -23 -47
-23 -64 0 -14 21 -29 12 -20 -12 8 -23 51 -36 81 -25 52 20 44 65 -16 85 -19
7 -34 18 -34 26 0 21 37 24 51 4 7 -9 18 -14 24 -10 18 11 -19 45 -51 45 -15
0 -35 -7 -43 -16z"/>
<path d="M10462 4747 c-38 -40 -25 -109 24 -127 28 -11 70 4 79 28 9 23 -3 27
-23 9 -16 -15 -62 -24 -62 -13 0 2 -3 11 -6 20 -5 12 5 15 48 18 50 3 53 4 50
28 -9 59 -70 80 -110 37z m74 -14 c17 -17 16 -18 -20 -21 -45 -4 -54 2 -36 23
16 20 35 19 56 -2z"/>
<path d="M10720 4695 l34 -35 33 32 c18 18 33 33 33 35 0 2 -30 3 -67 3 l-67
0 34 -35z"/>
<path d="M8945 4733 c-18 -17 -20 -64 -3 -81 33 -33 75 5 63 58 -7 33 -38 45
-60 23z"/>
<path d="M9307 4733 c-15 -15 -5 -23 28 -23 26 0 33 3 29 15 -6 15 -45 21 -57
8z"/>
<path d="M10116 4290 c-8 -16 -10 -30 -5 -30 5 0 9 -19 9 -42 0 -69 9 -88 39
-88 24 1 24 2 9 14 -13 10 -18 27 -18 65 0 42 3 51 18 51 16 1 16 1 0 14 -10
7 -18 21 -18 30 0 26 -17 19 -34 -14z"/>
<path d="M10200 4205 c0 -43 4 -75 10 -75 6 0 10 18 10 41 0 47 14 79 35 79 8
0 15 7 15 15 0 18 -21 20 -38 3 -9 -9 -12 -9 -12 0 0 7 -4 12 -10 12 -6 0 -10
-32 -10 -75z"/>
<path d="M10290 4217 c0 -77 9 -87 73 -85 l47 1 0 73 c0 59 -3 74 -15 74 -11
0 -15 -13 -15 -54 0 -56 -17 -83 -44 -73 -10 4 -16 24 -18 63 -2 35 -8 59 -15
62 -10 3 -13 -14 -13 -61z"/>
<path d="M10462 4257 c-38 -40 -25 -109 24 -127 28 -11 70 4 79 28 9 23 -3 27
-23 9 -16 -15 -62 -24 -62 -13 0 2 -3 11 -6 20 -5 12 5 15 48 18 50 3 53 4 50
28 -9 59 -70 80 -110 37z m74 -14 c17 -17 16 -18 -20 -21 -45 -4 -54 2 -36 23
16 20 35 19 56 -2z"/>
<path d="M10720 4205 l34 -35 33 32 c18 18 33 33 33 35 0 2 -30 3 -67 3 l-67
0 34 -35z"/>
<path d="M9055 4243 c-18 -17 -20 -64 -3 -81 33 -33 75 5 63 58 -7 33 -38 45
-60 23z"/>
<path d="M9417 4243 c-15 -15 -5 -23 28 -23 26 0 33 3 29 15 -6 15 -45 21 -57
8z"/>
<path d="M7150 3730 c0 -82 3 -100 15 -100 11 0 15 12 15 45 l0 45 50 0 50 0
0 -45 c0 -33 4 -45 15 -45 12 0 15 18 15 100 0 82 -3 100 -15 100 -11 0 -15
-11 -15 -40 l0 -40 -50 0 -50 0 0 40 c0 29 -4 40 -15 40 -12 0 -15 -18 -15
-100z"/>
<path d="M7510 3801 c0 -11 -6 -21 -12 -24 -10 -3 -10 -7 -1 -18 6 -8 13 -39
15 -69 3 -48 6 -55 26 -58 25 -4 30 13 7 22 -10 4 -15 20 -15 51 0 31 5 47 15
51 8 4 15 10 15 15 0 5 -7 9 -15 9 -8 0 -15 9 -15 20 0 11 -4 20 -10 20 -5 0
-10 -9 -10 -19z"/>
<path d="M7356 3758 c-17 -23 -21 -85 -8 -104 25 -39 90 -36 111 5 17 31 13
86 -7 104 -27 25 -78 22 -96 -5z m80 -27 c7 -13 9 -34 5 -49 -6 -21 -13 -27
-36 -27 -40 0 -56 41 -31 80 20 31 46 29 62 -4z"/>
<path d="M7693 3703 l37 -38 37 38 38 37 -75 0 -75 0 38 -37z"/>
<path d="M6080 3740 c-22 -22 -25 -42 -10 -71 23 -41 70 -16 70 38 0 44 -31
62 -60 33z"/>
<path d="M6437 3743 c-15 -15 -5 -23 28 -23 26 0 33 3 29 15 -6 15 -45 21 -57
8z"/>
<path d="M2684 3331 c-34 -15 -54 -52 -54 -99 0 -56 14 -80 57 -98 72 -30 133
18 133 105 0 71 -72 119 -136 92z m90 -43 c23 -32 20 -94 -4 -118 -45 -45
-110 -10 -110 60 0 27 7 47 20 60 27 27 75 26 94 -2z"/>
<path d="M3676 3290 c-8 -16 -10 -30 -5 -30 5 0 9 -19 9 -42 0 -69 9 -88 39
-88 24 1 24 2 9 14 -13 10 -18 27 -18 65 0 42 3 51 18 51 16 1 16 1 0 14 -10
7 -18 21 -18 30 0 26 -17 19 -34 -14z"/>
<path d="M2840 3271 c0 -26 50 -136 63 -139 10 -2 23 18 41 65 30 79 31 83 13
83 -7 0 -21 -25 -31 -55 -9 -30 -19 -55 -21 -55 -2 0 -12 25 -21 55 -10 30
-24 55 -31 55 -7 0 -13 -4 -13 -9z"/>
<path d="M3017 3268 c-44 -34 -39 -115 8 -136 29 -13 72 -1 81 23 9 23 -6 33
-17 12 -14 -23 -56 -22 -69 3 -10 19 -8 20 45 20 52 0 55 1 55 25 0 50 -63 83
-103 53z m61 -20 c20 -20 14 -28 -23 -28 -24 0 -35 5 -35 14 0 24 39 33 58 14z"/>
<path d="M3150 3203 c0 -58 3 -73 15 -73 12 0 15 13 15 56 0 47 3 57 20 61 33
9 23 29 -15 29 l-35 0 0 -73z"/>
<path d="M3254 3259 c-22 -24 -25 -89 -5 -113 18 -22 74 -21 94 2 21 23 21 32
3 32 -8 0 -16 -7 -20 -15 -7 -19 -40 -19 -56 0 -19 23 -4 82 22 91 14 4 25 1
33 -10 13 -17 35 -22 35 -8 0 17 -37 42 -62 42 -14 0 -33 -9 -44 -21z"/>
<path d="M3395 3258 c-18 -27 0 -39 19 -13 15 20 49 17 54 -6 2 -10 -10 -18
-40 -25 -39 -8 -43 -12 -46 -42 -3 -26 1 -34 20 -41 13 -5 32 -5 44 -1 11 5
33 6 50 3 24 -5 27 -3 17 8 -7 7 -13 36 -13 64 0 28 -5 56 -12 63 -21 21 -75
15 -93 -10z m73 -80 c-2 -16 -11 -24 -29 -26 -35 -4 -48 25 -16 38 37 15 49
12 45 -12z"/>
<path d="M3550 3266 c-23 -29 -8 -60 35 -72 22 -6 40 -17 40 -25 0 -21 -44
-23 -66 -3 -23 21 -35 13 -20 -14 26 -49 115 -28 109 26 -2 21 -11 29 -43 38
-22 6 -40 17 -40 25 0 20 39 23 55 4 14 -17 30 -20 30 -6 0 35 -76 55 -100 27z"/>
<path d="M3873 3203 l37 -38 37 38 38 37 -75 0 -75 0 38 -37z"/>
<path d="M1577 3249 c-23 -13 -24 -87 -1 -96 27 -10 49 11 52 50 4 41 -20 63
-51 46z"/>
<path d="M1927 3244 c-15 -16 -5 -24 29 -24 24 0 34 4 32 13 -5 13 -50 22 -61
11z"/>
<path d="M3050 2730 c0 -82 3 -100 15 -100 11 0 15 12 15 45 0 40 2 45 23 45
51 0 67 -11 73 -51 4 -23 12 -39 20 -39 16 0 17 11 5 64 -6 25 -6 47 1 62 8
18 7 29 -6 49 -15 22 -23 25 -81 25 l-65 0 0 -100z m116 66 c30 -23 7 -50 -45
-54 -41 -3 -41 -3 -41 32 0 34 2 36 33 36 18 0 42 -6 53 -14z"/>
<path d="M3400 2814 c0 -9 5 -14 12 -12 18 6 21 28 4 28 -9 0 -16 -7 -16 -16z"/>
<path d="M3255 2758 c-18 -27 0 -39 19 -13 15 20 49 17 54 -6 2 -10 -10 -18
-40 -25 -39 -8 -43 -12 -46 -42 -3 -26 1 -34 20 -41 13 -5 32 -5 44 -1 11 5
33 6 50 3 24 -5 27 -3 17 8 -7 7 -13 36 -13 64 0 28 -5 56 -12 63 -21 21 -75
15 -93 -10z m73 -80 c-2 -16 -11 -24 -29 -26 -35 -4 -48 25 -16 38 37 15 49
12 45 -12z"/>
<path d="M3400 2706 c0 -62 3 -76 15 -76 13 0 15 12 13 72 -2 46 -7 73 -15 76
-10 3 -13 -16 -13 -72z"/>
<path d="M3460 2705 c0 -60 3 -75 15 -75 12 0 15 13 15 55 0 45 3 56 22 66 30
16 48 -11 48 -73 0 -26 5 -48 10 -48 14 0 13 123 -2 138 -15 15 -51 15 -66 0
-9 -9 -12 -9 -12 0 0 7 -7 12 -15 12 -12 0 -15 -15 -15 -75z"/>
<path d="M3873 2703 l37 -38 37 38 38 37 -75 0 -75 0 38 -37z"/>
<path d="M5438 2725 c-8 -19 -8 -31 0 -50 16 -34 49 -33 63 2 22 58 -37 104
-63 48z"/>
<path d="M1975 2743 c-18 -17 -20 -64 -3 -81 33 -33 75 5 63 58 -7 33 -38 45
-60 23z"/>
<path d="M2337 2743 c-15 -15 -5 -23 28 -23 26 0 33 3 29 15 -6 15 -45 21 -57
8z"/>
<path d="M5297 2749 c-21 -12 -23 -72 -2 -89 21 -18 48 -8 55 20 13 50 -17 89
-53 69z"/>
<path d="M5607 2743 c-15 -15 -5 -23 28 -23 26 0 33 3 29 15 -6 15 -45 21 -57
8z"/>
<path d="M6000 2230 c0 -82 3 -100 15 -100 11 0 15 12 15 45 l0 45 55 0 55 0
0 -45 c0 -33 4 -45 15 -45 12 0 15 18 15 100 0 82 -3 100 -15 100 -11 0 -15
-11 -15 -40 l0 -40 -55 0 -55 0 0 40 c0 29 -4 40 -15 40 -12 0 -15 -18 -15
-100z"/>
<path d="M6592 2318 c6 -18 28 -21 28 -4 0 9 -7 16 -16 16 -9 0 -14 -5 -12
-12z"/>
<path d="M6750 2300 c0 -27 -2 -29 -29 -24 -66 13 -101 -91 -45 -135 15 -11
31 -18 37 -14 5 3 23 6 38 5 l29 -1 0 100 c0 81 -3 99 -15 99 -10 0 -15 -10
-15 -30z m-12 -52 c14 -14 16 -67 3 -86 -4 -8 -19 -12 -32 -10 -20 2 -25 10
-27 43 -3 29 1 43 14 52 22 16 27 16 42 1z"/>
<path d="M6812 2318 c6 -18 28 -21 28 -4 0 9 -7 16 -16 16 -9 0 -14 -5 -12
-12z"/>
<path d="M6880 2301 c0 -11 -6 -22 -12 -25 -10 -5 -10 -7 0 -12 7 -3 12 -25
12 -54 0 -27 3 -55 6 -64 7 -17 44 -22 44 -6 0 6 -4 10 -10 10 -15 0 -13 107
3 114 10 5 10 7 0 12 -7 3 -13 14 -13 25 0 10 -7 19 -15 19 -8 0 -15 -9 -15
-19z"/>
<path d="M6207 2273 c-10 -10 -8 -88 3 -118 9 -23 14 -25 60 -24 l50 2 0 74
c0 42 -4 73 -10 73 -5 0 -10 -22 -10 -48 0 -55 -18 -86 -46 -80 -16 3 -19 13
-22 66 -3 58 -9 72 -25 55z"/>
<path d="M6360 2203 c0 -58 3 -73 15 -73 11 0 15 13 15 54 0 35 5 58 15 66 26
22 45 -5 45 -66 0 -30 5 -54 10 -54 6 0 10 22 10 49 0 53 19 84 45 75 11 -5
15 -22 15 -65 0 -46 3 -59 15 -59 12 0 15 13 15 56 0 30 -5 64 -10 75 -12 21
-50 25 -68 7 -8 -8 -15 -8 -25 0 -7 6 -32 10 -55 9 l-42 -1 0 -73z"/>
<path d="M6597 2273 c-4 -3 -7 -37 -7 -75 0 -54 3 -68 15 -68 12 0 15 15 15
75 0 69 -6 86 -23 68z"/>
<path d="M6817 2273 c-4 -3 -7 -37 -7 -75 0 -54 3 -68 15 -68 12 0 15 15 15
75 0 69 -6 86 -23 68z"/>
<path d="M7210 2205 l34 -35 33 32 c18 18 33 33 33 35 0 2 -30 3 -67 3 l-67 0
34 -35z"/>
<path d="M4610 2230 l0 -70 40 0 c44 0 60 18 60 70 0 52 -16 70 -60 70 l-40 0
0 -70z"/>
<path d="M4807 2236 c-5 -13 1 -16 29 -16 24 0 34 4 32 13 -7 19 -54 21 -61 3z"/>
<path d="M5375 2243 c-18 -17 -20 -64 -3 -81 33 -33 75 5 63 58 -7 33 -38 45
-60 23z"/>
<path d="M6190 1730 c0 -82 3 -100 15 -100 12 0 15 15 15 78 l0 77 51 -77 c68
-107 79 -104 79 22 0 81 -3 100 -15 100 -11 0 -15 -17 -17 -72 l-3 -73 -44 73
c-29 48 -49 72 -62 72 -17 0 -19 -9 -19 -100z"/>
<path d="M7030 1730 c0 -82 3 -100 15 -100 12 0 15 18 15 100 0 82 -3 100 -15
100 -12 0 -15 -18 -15 -100z"/>
<path d="M6404 1759 c-24 -26 -25 -92 -2 -116 25 -24 77 -21 100 6 24 31 23
86 -2 111 -26 26 -72 26 -96 -1z m74 -11 c13 -13 16 -56 6 -82 -7 -19 -45 -21
-62 -4 -17 17 -15 64 4 82 19 19 36 20 52 4z"/>
<path d="M6550 1705 c0 -43 4 -75 10 -75 6 0 10 18 10 41 0 47 14 79 35 79 8
0 15 7 15 15 0 18 -21 20 -38 3 -9 -9 -12 -9 -12 0 0 7 -4 12 -10 12 -6 0 -10
-32 -10 -75z"/>
<path d="M6640 1705 c0 -60 3 -75 15 -75 11 0 15 13 15 54 0 57 15 81 44 70
12 -5 16 -20 16 -65 0 -46 3 -59 15 -59 12 0 15 13 15 59 0 45 4 60 16 65 27
10 34 -3 34 -65 0 -46 3 -59 15 -59 12 0 15 14 15 63 0 36 -5 68 -12 75 -15
15 -50 16 -65 1 -8 -8 -13 -8 -17 0 -9 15 -49 14 -64 -1 -9 -9 -12 -9 -12 0 0
7 -7 12 -15 12 -12 0 -15 -15 -15 -75z"/>
<path d="M6892 1768 c-15 -15 -16 -38 -2 -38 6 0 10 4 10 9 0 16 40 23 55 11
19 -16 10 -30 -19 -30 -38 0 -70 -32 -63 -62 8 -31 37 -40 71 -22 14 7 26 9
26 3 0 -5 9 -9 20 -9 11 0 20 5 20 10 0 6 -4 10 -10 10 -5 0 -10 24 -10 53 0
61 -11 77 -55 77 -17 0 -36 -5 -43 -12z m78 -74 c0 -20 -24 -44 -45 -44 -30 0
-36 36 -7 43 26 7 52 8 52 1z"/>
<path d="M7210 1705 l34 -35 33 32 c18 18 33 33 33 35 0 2 -30 3 -67 3 l-67 0
34 -35z"/>
<path d="M5125 1743 c-18 -17 -20 -64 -3 -81 33 -33 75 5 63 58 -7 33 -38 45
-60 23z"/>
<path d="M5487 1743 c-15 -15 -5 -23 28 -23 26 0 33 3 29 15 -6 15 -45 21 -57
8z"/>
<path d="M6520 1230 c0 -82 3 -100 15 -100 11 0 15 12 15 45 l0 45 50 0 50 0
0 -45 c0 -33 4 -45 15 -45 12 0 15 18 15 100 0 82 -3 100 -15 100 -11 0 -15
-11 -15 -40 l0 -40 -50 0 -50 0 0 40 c0 29 -4 40 -15 40 -12 0 -15 -18 -15
-100z"/>
<path d="M6720 1314 c0 -17 22 -14 28 4 2 7 -3 12 -12 12 -9 0 -16 -7 -16 -16z"/>
<path d="M6940 1230 c0 -107 15 -136 22 -44 5 56 19 76 48 71 11 -2 16 -19 18
-65 2 -46 7 -62 17 -62 18 0 21 100 5 131 -12 22 -59 26 -78 7 -9 -9 -12 -4
-12 25 0 20 -4 37 -10 37 -6 0 -10 -40 -10 -100z"/>
<path d="M6720 1206 c0 -62 3 -76 15 -76 13 0 15 12 13 72 -2 46 -7 73 -15 76
-10 3 -13 -16 -13 -72z"/>
<path d="M7210 1205 l34 -35 33 32 c18 18 33 33 33 35 0 2 -30 3 -67 3 l-67 0
34 -35z"/>
<path d="M5457 1249 c-21 -12 -23 -72 -2 -89 21 -18 48 -8 55 20 13 50 -17 89
-53 69z"/>
<path d="M5807 1236 c-5 -13 1 -16 29 -16 24 0 34 4 32 13 -7 19 -54 21 -61 3z"/>
</g>
</svg>
